<?xml version="1.0" standalone="no"?>
<!DOCTYPE svg PUBLIC "-//W3C//DTD SVG 20010904//EN"
 "http://www.w3.org/TR/2001/REC-SVG-20010904/DTD/svg10.dtd">
<svg version="1.0" xmlns="http://www.w3.org/2000/svg"
 width="1024.000000pt" height="1024.000000pt" viewBox="0 0 1024.000000 1024.000000"
 preserveAspectRatio="xMidYMid meet">
<metadata>
Created by potrace 1.11, written by Peter Selinger 2001-2013
</metadata>
<g transform="translate(0.000000,1024.000000) scale(0.100000,-0.100000)"
fill="#000000" stroke="none">
<path d="M2669 10236 c-2 -2 -76 -7 -164 -10 -230 -10 -310 -17 -490 -41 -91
-13 -307 -54 -365 -70 -255 -70 -404 -136 -620 -273 -192 -123 -394 -311 -539
-502 -151 -199 -271 -427 -334 -635 -52 -169 -106 -460 -122 -655 -4 -41 -8
-93 -10 -115 -17 -177 -20 -677 -20 -2825 0 -2194 3 -2566 20 -2810 33 -456
122 -814 275 -1105 227 -432 610 -781 1074 -979 135 -58 385 -124 576 -151 25
-4 56 -8 70 -10 147 -21 252 -30 505 -43 197 -9 4995 -9 5190 0 178 9 285 16
340 23 146 17 223 27 240 30 11 3 36 7 55 10 52 7 91 15 130 25 19 5 49 11 65
14 17 3 46 11 65 16 19 6 45 13 58 16 70 14 244 85 372 152 81 42 264 158 292
184 7 7 38 32 68 55 56 43 226 210 277 273 15 19 34 41 40 48 7 8 34 44 60 80
26 37 50 69 53 72 8 8 73 117 112 190 114 210 173 401 233 745 3 17 7 50 10
75 3 25 8 59 10 75 2 17 7 64 10 105 4 41 8 86 11 99 15 98 19 696 19 2826 0
2119 -4 2690 -20 2820 -2 17 -6 59 -9 95 -14 152 -38 316 -61 416 -8 34 -16
73 -19 85 -56 276 -201 577 -397 825 -90 113 -230 259 -304 315 -16 13 -32 26
-35 30 -9 11 -154 115 -210 150 -82 52 -214 121 -312 163 -221 94 -573 166
-943 192 -49 4 -117 9 -150 11 -68 6 -5100 14 -5106 9z"/>
</g>
</svg>
